<?xml version="1.0" encoding="UTF-8"?><svg id="a" xmlns="http://www.w3.org/2000/svg" viewBox="0 0 2906.97 702.05"><path d="M418.96,555.71c-10.6,.79-20.59,1.61-30.6,2.28-32.01,2.16-55.93-9.76-67.52-40.49-6.91-18.32-9.79-38.19-14.2-57.43-6.86-29.94-13.72-59.88-20.13-89.91-4.31-20.2-7.87-40.56-11.7-60.86-2.74-14.55-5.51-29.1-7.99-43.7-1.01-5.98-1.28-12.09-2.75-18.18-2.41,12.43-4.7,24.89-7.25,37.29-3.53,17.15-6.96,34.34-10.96,51.38-5.77,24.57-12.03,49.03-18.05,73.54-4.29,17.45-8.48,34.92-12.79,52.37-6.22,25.16-12.52,50.3-18.76,75.45-1.1,4.43-1.85,8.96-3.22,13.3-.53,1.67-2.11,3.93-3.58,4.25-23.92,5.28-47.74,8.28-70.73-3.99-14.22-7.59-22.73-20.16-27.18-34.69-7.53-24.58-13.5-49.64-19.81-74.58-8.27-32.69-16.26-65.46-24.34-98.2-5.61-22.71-11.24-45.41-16.74-68.15-6.35-26.28-12.47-52.61-18.87-78.87-3.72-15.28-7.81-30.48-11.67-45.73-.27-1.06-.04-2.24-.04-3.81H92.35c19.79,103.98,39.66,208.32,59.76,313.91,19.64-106.32,46.94-209.68,70.85-314.07h91.46c20.71,103.41,46.21,205.73,61.75,309.92,20.88-103.36,41.74-206.6,62.6-309.91h88.19c-36.04,136.44-71.89,272.18-108,408.89Z"/><path d="M1425.03,554.87h-82.85v-7.65c0-56.36,.34-112.72-.21-169.08-.16-16.38-3.5-32.52-12.34-47.01-16.04-26.29-56.32-23.51-73.76-4.24-12,13.26-16.98,28.55-17.1,45.48-.39,57.97-.15,115.94-.15,173.91,0,2.71,0,5.42,0,8.52h-82.85c0-2.57,0-5.21,0-7.85,0-56.59,.22-113.18-.15-169.77-.09-14.31-2.52-28.34-9.17-41.58-16.16-32.18-58.04-31.85-79.11-4.39-11.11,14.48-15.17,30.84-15.15,48.67,.05,55.9,.02,111.8,.02,167.7,0,2.25,0,4.49,0,7.17h-82.32V247.74h77.81v39.48c.51,.49,1.02,.98,1.53,1.47,21.19-33.03,51.03-47.89,89.76-47.14,39.69,.77,67.35,18.59,84.61,54.35,9.27-14.36,20.77-26.2,34.64-35.56,16.38-11.05,34.42-17.68,54.3-18.5,17-.7,33.85-.21,49.89,6.83,21.41,9.4,37.15,24.84,47.17,45.59,11.58,24,15.73,49.67,15.54,76.35-.4,57.74-.12,115.48-.12,173.22v11.03Z"/><path d="M776.73,554.68c-28.6,10.28-67.45,7.2-81.8-31.99-6.97,6.22-13.61,13.04-21.13,18.67-14.75,11.04-31.86,16.48-49.92,19.4-20.52,3.32-40.68,1.46-59.87-5.9-13.58-5.21-25.59-13.63-35.18-25.04-17.38-20.68-24.3-44.78-21.9-71.23,3.08-33.95,20.21-59.58,49.22-77.27,19.1-11.64,39.96-18.78,61.95-22.03,22.77-3.37,45.7-5.64,68.92-8.44,3.59-12.2-7.02-36.06-24.37-42.81-14.7-5.72-29.44-7.22-45.27-5.88-18.27,1.54-35.36,6.47-52.25,12.71-6.71,2.48-13,6.12-20.44,9.69-1.16-3.47-2.44-6.92-3.46-10.45-3.79-13.09-7.29-26.28-11.33-39.29-1.4-4.5-1.22-6.44,3.69-8.8,23.24-11.17,47.38-19,73.08-21.4,14.56-1.36,29.21-2.88,43.79-2.63,29.94,.52,58.47,6.68,82.6,26.01,12.87,10.3,22.21,23.28,28.5,38.55,9.69,23.51,12.18,48.05,11.8,73.25-.49,32.89-.56,65.81,.02,98.7,.45,25.33,2.17,50.64,3.33,76.17Zm-85.53-147.74c-11.07,.7-20.63,.87-30.07,2-19.67,2.35-38.77,6.04-55.05,19.05-15.86,12.67-18.36,42.86-6.89,57.44,10.92,13.88,25.75,17.31,42.28,14.45,23.22-4.01,41.17-16.46,46.61-39.64,3.9-16.6,2.23-34.5,3.11-53.31Z"/><path d="M1638.56,350.82c2.53-19.19-11.8-40.32-30.72-45.57-22.73-6.3-45.22-4.7-67.36,1.9-14.93,4.45-29.4,10.48-44.91,16.1-4.96-17.02-10.3-35.36-15.69-53.87,16.57-10.04,34.23-16.17,52.39-20.54,25.03-6.02,50.62-8.76,76.31-6.89,32.53,2.37,63.27,10.28,86.31,35.77,13.63,15.07,21.23,33.19,25.79,52.89,4.45,19.23,4.01,38.66,4.02,58.12,0,34.74-.45,69.48,.19,104.21,.34,18.23,2.58,36.43,4.03,54.63,.16,2.01,.77,3.98,1.17,5.97-27.13,12.07-69.97,8.95-83.74-31.73-10.51,12.22-22.35,22.31-36.98,28.84-23.97,10.69-48.54,13.87-74.66,9.26-23.06-4.07-41.65-14.93-56.25-32.46-10.61-12.74-16.87-27.69-19.09-44.53-1.95-14.75-.91-29.06,2.82-43.2,6.85-25.92,23.13-44.74,45.67-58.52,19.13-11.7,40.05-18.72,62.07-21.96,22.56-3.32,45.27-5.6,68.65-8.43Zm3.23,57.02c-3-.15-5.25-.33-7.51-.36-19.32-.19-38.39,2.32-56.48,8.81-16.85,6.05-30.04,16.44-33.63,35.88-3.83,20.75,6.17,40.86,24.33,46.19,21.04,6.18,39.64,.87,55.83-13.28,9.95-8.7,16.69-19.63,17.31-33.05,.66-14.43,.15-28.92,.15-44.2Z"/><path d="M2144.88,487.74v66.88c-12.41,1.97-25.59,3.97-38.75,6.16-17.4,2.89-34.65,1.95-51.49-2.98-29.52-8.65-47.74-27.92-55.51-58.06-5.18-20.1-5.22-40.26-5.21-60.62,.03-95,.01-190,.01-284.99,0-2.25,0-4.5,0-7.16h81.2v95.98h72.89v78.7h-72.14c-.19,2.55-.47,4.51-.47,6.47-.03,36.57-.35,73.15,.19,109.72,.15,10.33,1.61,20.99,4.58,30.87,5.64,18.79,22.06,24.45,41.71,22.7,7.21-.65,14.34-2.24,22.98-3.65Z"/><path d="M829.04,146.73h81.75v408.02h-81.75V146.73Z"/><path d="M1780.4,249.07h74.02v55.78c.56,.22,1.13,.44,1.69,.66,1.24-1.85,2.82-3.55,3.65-5.56,12.62-30.62,34.52-50.7,67.2-57.44,9.05-1.87,18.78-.74,28.18-.4,1.48,.05,4.05,3.23,4.07,4.99,.27,25.03,.18,50.07,.18,74.78-8.35,0-16.23,.34-24.08-.07-15.52-.81-29.43,3.63-41.88,12.54-11.68,8.36-20.61,19.26-23.42,33.5-2.49,12.63-4.18,25.61-4.32,38.46-.5,46.91-.19,93.83-.19,140.75v7.77h-85.12V249.07Z"/><path d="M2688.6,430.33c-1.24-18.84,7.78-30.97,22.47-38.48,4.97-2.54,13.23-2.51,18.41-.17,34.34,15.47,68.23,31.94,102.32,47.96,18.2,8.56,36.5,16.92,54.78,25.29,19.25,8.81,21.94,21.31,19.74,38.55-2.6,20.43-13.45,36.25-31.42,47.1-9.79,5.91-24.21,6.87-35.42-1.19-23.16-16.65-46.63-32.88-69.98-49.26-24.47-17.16-49.05-34.19-73.41-51.51-6.51-4.63-8.93-11.47-7.49-18.3Z"/><path d="M2281.2,499.41c-.15-21.37,8.29-31.27,28.28-39.37,17.69-7.17,34.89-15.56,52.29-23.43,15.37-6.95,30.74-13.91,46.11-20.89,16.61-7.54,33.26-15,49.81-22.68,11.18-5.19,22.43-3.35,30.89,5.99,9.88,10.91,15.22,23.57,10.55,38.27-1.43,4.49-5.29,8.95-9.23,11.77-25.73,18.4-51.79,36.33-77.72,54.44-21.47,14.99-42.95,29.98-64.36,45.06-14.04,9.89-23.15,9.19-38.55-1.17-17.4-11.71-27.19-29.72-28.06-47.98Z"/><path d="M2466.8,313.06c-6.32-2.48-13.76-5.04-20.88-8.29-13.29-6.06-26.4-12.52-39.58-18.81-25.8-12.29-51.57-24.63-77.41-36.84-9.69-4.57-19.28-9.53-29.36-13.05-15.87-5.54-19.64-23.36-18.03-36.01,1.82-14.29,8.55-26.29,17.31-37.31,10.24-12.88,30.25-19.4,43.46-13.02,7.69,3.71,14.31,9.64,21.38,14.61,26.14,18.35,52.29,36.69,78.38,55.1,15.81,11.16,31.21,22.92,47.38,33.52,11.65,7.63,12.73,17.62,9.98,29.65-3,13.12-10.51,22.53-22.55,28.25-2.55,1.21-5.65,1.28-10.08,2.2Z"/><path d="M2906.85,203.06c-.28,16.65-5.34,27.29-19.98,33.81-40.76,18.14-81.03,37.36-121.45,56.25-12.12,5.67-24.01,11.83-36.16,17.45-8.27,3.82-16.25,1.67-23.52-2.93-13.18-8.34-20.94-28.93-16.33-43.86,1.01-3.25,3.41-6.72,6.17-8.68,24.9-17.63,50.1-34.83,75.06-52.37,24.26-17.04,48.36-34.3,72.51-51.49,10.66-7.59,22.12-5.18,31.65,.41,19.95,11.7,30.5,30.09,32.04,51.4Z"/><path d="M2594.7-.85c13.41-.24,24.97,4.16,35.3,11.98,6.93,5.25,12.29,11.76,11.54,21.23-1.66,20.68-3.54,41.34-5.21,62.02-.7,8.66-.89,17.37-1.71,26.02-1.64,17.41-3.63,34.78-5.3,52.18-1.13,11.82-3.41,23.77-2.59,35.49,1.17,16.65-10.65,25.98-24.02,27.74-13.21,1.74-26.43,1.03-35.96-10.29-2.58-3.07-4.72-7.38-5.07-11.31-2.22-24.35-3.67-48.77-5.79-73.13-1.96-22.45-4.49-44.84-6.69-67.27-1.07-10.9-2.01-21.82-2.9-32.74-1.84-22.58,8.48-30.55,26.44-37.75,6.79-2.72,14.62-2.85,21.97-4.16Z"/><path d="M2594.66,702.91c-13.31-.49-24.9-3.95-35.78-11.32-12.34-8.36-13.98-19.93-12.11-33.17,.89-6.32,1.68-12.67,2.27-19.03,1.43-15.41,2.77-30.83,4.04-46.25,1.04-12.74,1.74-25.51,2.93-38.23,1.63-17.43,3.59-34.82,5.36-52.24,.19-1.82,.22-3.69,.1-5.51-1.5-21.87,10.64-29.22,28.88-31.39,11.96-1.42,23.98,.95,31.91,11.64,2.27,3.06,3.52,7.36,3.96,11.24,2.11,18.58,3.85,37.2,5.57,55.81,1.09,11.83,1.88,23.68,2.87,35.52,1.76,20.94,3.67,41.87,5.32,62.81,.77,9.79,1.43,19.61,1.49,29.43,.06,9.65-11.38,22.32-22.98,25.53-7.81,2.16-15.87,3.47-23.81,5.15Z"/></svg>